<svg width="54" height="20" viewBox="0 0 54 20" fill="none" xmlns="http://www.w3.org/2000/svg">
    <path d="M17.3697 19.5843H17.9907L9.23918 0.111755H8.64482L0 19.5843H0.647695" fill="black"/>
    <path d="M30.1158 1.3241C31.6017 2.20618 32.7809 3.39866 33.6553 4.90349C34.5278 6.40833 34.9659 8.04283 34.9659 9.80699C34.9659 11.5711 34.5297 13.2115 33.6553 14.7242C32.7809 16.2389 31.6017 17.4392 30.1158 18.3311C28.6299 19.223 27.0126 19.669 25.2676 19.669C23.5208 19.669 21.9053 19.223 20.4195 18.3311C18.9336 17.4392 17.7525 16.2369 16.88 14.7223C16.0056 13.2096 15.5694 11.5692 15.5694 9.80503C15.5694 8.04087 16.0056 6.40637 16.88 4.90153C17.7525 3.39669 18.9336 2.20422 20.4195 1.32214C21.9034 0.442022 23.5189 0 25.2676 0C27.0126 0 28.6299 0.442022 30.1158 1.3241Z" fill="black"/>
    <path d="M48.2188 1.42014C49.6951 2.29436 50.8705 3.47701 51.7449 4.97203C52.6174 6.46704 53.0555 8.09761 53.0555 9.86177C53.0555 11.6082 52.6193 13.229 51.7449 14.724C50.8705 16.219 49.6951 17.4036 48.2188 18.2759C46.7424 19.1501 45.1308 19.5862 43.3839 19.5862H35.9545V0.111755H43.3839C45.1308 0.111755 46.7424 0.547883 48.2188 1.42014Z" fill="black"/>
</svg>
