<svg width="12" height="11" viewBox="0 0 12 11" fill="none" xmlns="http://www.w3.org/2000/svg">
    <path d="M1.04883 9.18116C0.737793 9.49219 0.731445 10.0444 1.05518 10.3682C1.38525 10.6919 1.9375 10.6856 2.24219 10.3809L6 6.62305L9.75146 10.3745C10.0688 10.6919 10.6147 10.6919 10.9385 10.3682C11.2622 10.0381 11.2622 9.49854 10.9448 9.18116L7.19336 5.42969L10.9448 1.67188C11.2622 1.3545 11.2686 0.8086 10.9385 0.484869C10.6147 0.161139 10.0688 0.161139 9.75146 0.478522L6 4.22999L2.24219 0.478522C1.9375 0.167486 1.37891 0.154791 1.05518 0.484869C0.731445 0.8086 0.737793 1.36719 1.04883 1.67188L4.80029 5.42969L1.04883 9.18116Z" fill="#EBEBF5" fill-opacity="0.6"/>
</svg>

